# xmcd
#
# Track frame offsets: 
#        150
#        11057
#        23140
#        34832
#        52932
#        72540
#        82053
#        105870
#        132689
#        142296
#        159525
#        176093
#        191155
#        209086
#        221319
#
# Disc length: 3145 seconds
#
# Revision: 2
# Processed by: cddbd v1.5.2PL0 Copyright (c) Steve Scherf et al.
# Submitted via: ExactAudioCopy v1.0b3
#
DISCID=e50c470f
DTITLE=Various Artist - Jazz Manouche vol.1 CD2
DYEAR=2005
DGENRE=Jazz
TTITLE0=Sanseverino - Il suffisait de presque rien (live)
TTITLE1=Lollo Meier - China boy
TTITLE2=Patrick Saussois and Alma Sinti - Alma sinti
TTITLE3=Paulus Schafer - After you've gone 
TTITLE4=David Reinhardt - Casting 
TTITLE5=Am Katenes - Hans che's swing
TTITLE6=Les doigts de l'homme - Le poinconneur des Lilas
TTITLE7=Ritary ensemble featuring matcho winterstein - Blue bossa
TTITLE8=Titi demeter - Les yeux noirs
TTITLE9=Trio Givone - Hunn, o Pati Naschella
TTITLE10=John Jorgenson - Man of mystery
TTITLE11=Yorgui Loeffler - Minor swing
TTITLE12=Hot Club USA - Stompin's at Decca
TTITLE13=Bireli Lagrene - Blues clair
TTITLE14=Django Reinhardt et le Quintet du Hot Club de France - Nuages
EXTD=YEAR: 2005
EXTT0=
EXTT1=
EXTT2=
EXTT3=
EXTT4=
EXTT5=
EXTT6=
EXTT7=
EXTT8=
EXTT9=
EXTT10=
EXTT11=
EXTT12=
EXTT13=
EXTT14=
PLAYORDER=
